<svg xmlns="http://www.w3.org/2000/svg" xmlns:xlink="http://www.w3.org/1999/xlink" viewBox="0,0,256,256" width="20px" height="20px"><g fill="#9ca2a7" fill-rule="nonzero" stroke="none" stroke-width="1" stroke-linecap="butt" stroke-linejoin="miter" stroke-miterlimit="10" stroke-dasharray="" stroke-dashoffset="0" font-family="none" font-weight="none" font-size="none" text-anchor="none" style="mix-blend-mode: normal"><g transform="scale(5.12,5.12)"><path d="M24,2c-1.10156,0 -2,0.89844 -2,2v0.04688c-5.25781,0.44141 -9.69922,4.33203 -10.75,9.53125c-0.07422,0.28906 -0.13281,0.60938 -0.17187,0.95703c-0.02344,0.08594 -0.0625,0.21484 -0.07422,0.38281c-0.0625,0.74609 -0.23828,1.75 -0.51953,2.98438c-0.03516,0.14844 -0.07031,0.29688 -0.10547,0.44531c1.99219,-1.16016 4.35156,-1.34766 5.62109,-1.34766c3.39453,0 6.44141,0.80469 7.14063,1h3.71484c0.69922,-0.19922 3.70313,-1 7.14453,-1c1.00781,0 3.52344,0.15234 5.65625,1.4375l-0.125,-0.47266c-0.29297,-1.25781 -0.47266,-2.28125 -0.53516,-3.05078c-0.01172,-0.15234 -0.04297,-0.27344 -0.07422,-0.375c-0.03906,-0.34766 -0.09766,-0.66406 -0.16016,-0.90234c-1.05859,-5.25391 -5.5,-9.14844 -10.76172,-9.58984v-0.04687c0,-1.10156 -0.89844,-2 -2,-2zM24,4h2v14h-2zM20.08594,8c0.39063,0.03516 0.73828,0.29688 0.86719,0.6875c0.16797,0.52734 -0.11719,1.08984 -0.64062,1.26172c-0.10547,0.03516 -2.44141,0.85547 -3.375,3.39453c-0.14844,0.40625 -0.53125,0.65625 -0.9375,0.65625c-0.11328,0 -0.23047,-0.01953 -0.34375,-0.0625c-0.51953,-0.19141 -0.78516,-0.76562 -0.59375,-1.28125c1.27734,-3.48047 4.49219,-4.5625 4.625,-4.60937c0.13281,-0.04297 0.26953,-0.05469 0.39844,-0.04687zM16.01563,19c-1.64062,0 -5.58594,0.35156 -6.69922,3.59766c0,0 -2.23438,4.92969 -2.78906,6.17969c-1.80469,4.05469 -3.51172,7.88672 -3.51172,10.20313c-0.00391,0.33203 0.07031,1.51172 1.32813,2.78906c1.11719,1.13281 3.73438,2.20703 7.19922,2.99219c0.90625,-0.94141 2.10938,-2.42578 2.50391,-4.00391c0.13672,-0.53516 0.67969,-0.85937 1.21484,-0.72656c0.53516,0.13281 0.85938,0.67578 0.72266,1.21094c-0.41406,1.65625 -1.46094,3.16406 -2.41797,4.26953c1.32031,1.67188 5.09375,2.48828 11.44922,2.48828c6.69141,0 10.42578,-0.85547 11.58984,-2.67187c-0.57422,-0.82031 -1.23047,-1.92578 -1.55078,-3.05859c-0.14844,-0.53125 0.16016,-1.08203 0.69141,-1.23437c0.53125,-0.14844 1.08203,0.16406 1.23438,0.69531c0.30078,1.07422 1.08203,2.25 1.65625,2.99219c3.38672,-0.77734 5.95313,-1.83594 7.05078,-2.95312c1.25781,-1.27734 1.33594,-2.46094 1.32813,-2.76953c0,-2.33984 -1.70312,-6.16797 -3.50391,-10.21875c-0.55859,-1.25 -2.78125,-6.15625 -2.78125,-6.15625c-1.26172,-3.36328 -5.45703,-3.625 -6.71484,-3.625c-3.55859,0 -6.67187,0.94531 -6.70312,0.95703l-0.29687,0.04297h-4.28516c-0.03516,-0.01172 -3.22656,-1 -6.71484,-1zM18.375,21c2.875,0 5.64063,2 5.64063,2v4.26563c0.29297,-0.16406 0.625,-0.26562 0.98438,-0.26562c0.37109,0 0.71875,0.10938 1.01563,0.28516v-4.28516c0,0 2.76953,-2 5.64453,-2c3.04688,0 4.35547,2.875 4.35547,5c0,0.08594 -0.01562,0.16406 -0.02734,0.24609c-0.12109,2.22266 -1.85547,6.61328 -2.05859,7.125c-0.15625,0.39063 -0.53516,0.62891 -0.92969,0.62891c-0.125,0 -0.25,-0.02344 -0.37109,-0.07031c-0.51172,-0.20312 -0.76172,-0.78906 -0.55859,-1.30078c0.37109,-0.93359 1.16016,-3.05469 1.60547,-4.76172c-0.875,0.15625 -1.66016,0.13281 -1.66016,0.13281h-5.29297c0.17188,0.29688 0.27734,0.63281 0.27734,1v9h-1v-6h-2v6h-1v-9c0,-0.36719 0.10547,-0.70312 0.27734,-1h-5.26172c0,0 -0.80469,0.02344 -1.69141,-0.14062c0.44141,1.70703 1.23047,3.83594 1.60547,4.76953c0.20313,0.51172 -0.04297,1.09766 -0.55859,1.30078c-0.12109,0.04688 -0.24609,0.07031 -0.37109,0.07031c-0.39844,0 -0.77344,-0.23828 -0.92969,-0.62891c-0.21094,-0.53125 -2.07031,-5.23828 -2.07031,-7.37109c0,-0.03906 0.01563,-0.07031 0.01953,-0.10937c0.04297,-2.10937 1.35938,-4.89062 4.35547,-4.89062zM21,33.19922v4.80078h-3zM29,33.19922l3,4.80078h-3zM29.96094,37c0.01172,0.02344 0.02734,0.03906 0.03906,0.0625v-0.0625z"></path></g></g></svg>